name rise49.5252peak65.1548fall88.8305.mot
datacolumns 19
datarows 26
range 12.64827900000000 12.68994800000000
endheader
time	ground_force1_vx	ground_force1_vy	ground_force1_vz	ground_force1_px	ground_force1_py	ground_force1_pz	ground_force2_vx	ground_force2_vy	ground_force2_vz	ground_force2_px	ground_force2_py	ground_force2_pz	ground_torque1_x	ground_torque1_y	ground_torque1_z	ground_torque2_x	ground_torque2_y	ground_torque2_z	
12.64827900000000	-45.34643100000000	780.70053499999995	52.73435100000000	0.18993200000000	0.00000000000000	0.07659800000000	-2.09677800000000	15.45898600000000	2.34400900000000	0.00000000000000	0.00000000000000	0.00000000000000	0.00000000000000	27.68390900000000	0.00000000000000	0.00000000000000	0.85691300000000	0.00000000000000	
12.64994400000000	-45.72943600000000	778.98216000000002	52.56211000000000	0.18915800000000	0.00000000000000	0.07648800000000	-2.65204100000000	20.67358100000000	3.02649400000000	0.00000000000000	0.00000000000000	0.00000000000000	0.00000000000000	27.53829300000000	0.00000000000000	0.00000000000000	1.11400000000000	0.00000000000000	
12.65160900000000	-46.11367500000000	777.18034100000000	52.37091200000000	0.18839500000000	0.00000000000000	0.07637300000000	-3.21493400000000	26.36698900000000	3.74069000000000	0.34959100000000	0.00000000000000	-0.10343900000000	0.00000000000000	27.38720500000000	0.00000000000000	0.00000000000000	2.36077100000000	0.00000000000000	
12.65327600000000	-46.49947400000000	775.29332199999999	52.16043900000000	0.18764500000000	0.00000000000000	0.07625400000000	-3.76384500000000	32.42497300000000	4.46486400000000	0.35962100000000	0.00000000000000	-0.10388100000000	0.00000000000000	27.23072800000000	0.00000000000000	0.00000000000000	2.87880000000000	0.00000000000000	
12.65494500000000	-46.88715000000000	773.31927900000005	51.93040200000000	0.18690600000000	0.00000000000000	0.07613000000000	-4.27743200000000	38.72611900000000	5.17706400000000	0.36850800000000	0.00000000000000	-0.10429400000000	0.00000000000000	27.06895100000000	0.00000000000000	0.00000000000000	3.40350900000000	0.00000000000000	
12.65661700000000	-47.27700800000000	771.25632199999995	51.68054600000000	0.18617900000000	0.00000000000000	0.07600100000000	-4.73610700000000	45.15184600000000	5.85673300000000	0.37643200000000	0.00000000000000	-0.10468300000000	0.00000000000000	26.90196900000000	0.00000000000000	0.00000000000000	3.92028300000000	0.00000000000000	
12.65827800000000	-47.66933300000000	769.10248999999999	51.41064500000000	0.18546400000000	0.00000000000000	0.07586700000000	-5.12327400000000	51.59532000000000	6.48607300000000	0.38353900000000	0.00000000000000	-0.10505000000000	0.00000000000000	26.72988000000000	0.00000000000000	0.00000000000000	4.41596700000000	0.00000000000000	
12.65994200000000	-48.06439100000000	766.85576100000003	51.12050800000000	0.18476200000000	0.00000000000000	0.07572800000000	-5.42617500000000	57.96834800000000	7.05103000000000	0.38994600000000	0.00000000000000	-0.10540000000000	0.00000000000000	26.55278900000000	0.00000000000000	0.00000000000000	4.87967300000000	0.00000000000000	
12.66160900000000	-48.46242500000000	764.51404600000001	50.80997700000000	0.18407200000000	0.00000000000000	0.07558500000000	-5.63631000000000	64.20575700000001	7.54183900000000	0.39574800000000	0.00000000000000	-0.10573600000000	0.00000000000000	26.37080100000000	0.00000000000000	0.00000000000000	5.30328000000000	0.00000000000000	
12.66327700000000	-48.86365200000000	762.07520099999999	50.47892700000000	0.18339400000000	0.00000000000000	0.07543700000000	-5.74944800000000	70.26721000000001	7.95312500000000	0.40102300000000	0.00000000000000	-0.10605800000000	0.00000000000000	26.18402900000000	0.00000000000000	0.00000000000000	5.68163800000000	0.00000000000000	
12.66494900000000	-49.26825700000000	759.53702299999998	50.12727100000000	0.18273000000000	0.00000000000000	0.07528400000000	-5.76529200000000	76.13667800000000	8.28363800000000	0.40583800000000	0.00000000000000	-0.10637000000000	0.00000000000000	25.99258400000000	0.00000000000000	0.00000000000000	6.01248600000000	0.00000000000000	
12.66661300000000	-49.67639400000000	756.89725899999996	49.75495700000000	0.18207700000000	0.00000000000000	0.07512600000000	-5.68687400000000	81.82000200000000	8.53569400000000	0.41024800000000	0.00000000000000	-0.10667300000000	0.00000000000000	25.79658300000000	0.00000000000000	0.00000000000000	6.29614600000000	0.00000000000000	
12.66828200000000	-50.08817900000000	754.15360799999996	49.36197000000000	0.18143800000000	0.00000000000000	0.07496300000000	-5.51979100000000	87.34109300000000	8.71441300000000	0.41429800000000	0.00000000000000	-0.10696700000000	0.00000000000000	25.59614200000000	0.00000000000000	0.00000000000000	6.53506100000000	0.00000000000000	
12.66995100000000	-50.50369100000000	751.30372799999998	48.94833000000000	0.18081100000000	0.00000000000000	0.07479600000000	-5.27135900000000	92.73729299999999	8.82686600000000	0.41802800000000	0.00000000000000	-0.10725400000000	0.00000000000000	25.39138000000000	0.00000000000000	0.00000000000000	6.73322800000000	0.00000000000000	
12.67161200000000	-50.92296400000000	748.34523899999999	48.51409700000000	0.18019700000000	0.00000000000000	0.07462400000000	-4.94978000000000	98.05446400000000	8.88121100000000	0.42147100000000	0.00000000000000	-0.10753500000000	0.00000000000000	25.18241600000000	0.00000000000000	0.00000000000000	6.89560800000000	0.00000000000000	
12.67327800000000	-51.34598800000000	745.27573199999995	48.05936900000000	0.17959400000000	0.00000000000000	0.07444700000000	-4.56338400000000	103.34221599999999	8.88588900000000	0.42465700000000	0.00000000000000	-0.10781000000000	0.00000000000000	24.96936900000000	0.00000000000000	0.00000000000000	7.02756400000000	0.00000000000000	
12.67494800000000	-51.77270200000000	742.09277299999997	47.58428100000000	0.17900400000000	0.00000000000000	0.07426600000000	-4.11998800000000	108.64965900000000	8.84893500000000	0.42760900000000	0.00000000000000	-0.10808100000000	0.00000000000000	24.75235900000000	0.00000000000000	0.00000000000000	7.13434900000000	0.00000000000000	
12.67661500000000	-52.20299600000000	738.79390999999998	47.08900800000000	0.17842600000000	0.00000000000000	0.07408100000000	-3.62641900000000	114.02190700000000	8.77744200000000	0.43034800000000	0.00000000000000	-0.10834700000000	0.00000000000000	24.53150400000000	0.00000000000000	0.00000000000000	7.22071300000000	0.00000000000000	
12.67828300000000	-52.63670300000000	735.37668399999995	46.57376300000000	0.17786000000000	0.00000000000000	0.07389100000000	-3.08818900000000	119.49747499999999	8.67719000000000	0.43289500000000	0.00000000000000	-0.10861000000000	0.00000000000000	24.30692100000000	0.00000000000000	0.00000000000000	7.29060100000000	0.00000000000000	
12.67994400000000	-53.07360200000000	731.83862999999997	46.03879800000000	0.17730500000000	0.00000000000000	0.07369600000000	-2.50933400000000	125.10662200000000	8.55243600000000	0.43526400000000	0.00000000000000	-0.10886900000000	0.00000000000000	24.07872600000000	0.00000000000000	0.00000000000000	7.34697600000000	0.00000000000000	
12.68161600000000	-53.51340900000000	728.17728899999997	45.48440500000000	0.17676100000000	0.00000000000000	0.07349800000000	-1.89239800000000	130.87057100000001	8.40586300000000	0.43747000000000	0.00000000000000	-0.10912600000000	0.00000000000000	23.84703300000000	0.00000000000000	0.00000000000000	7.39174800000000	0.00000000000000	
12.68328100000000	-53.95578100000000	724.39021600000001	44.91091200000000	0.17622800000000	0.00000000000000	0.07329500000000	-1.23853600000000	136.80153799999999	8.23865300000000	0.43952400000000	0.00000000000000	-0.10938000000000	0.00000000000000	23.61195400000000	0.00000000000000	0.00000000000000	7.42579600000000	0.00000000000000	
12.68494500000000	-54.40030900000000	720.47498700000006	44.31868800000000	0.17570500000000	0.00000000000000	0.07308800000000	-0.54770300000000	142.90339000000000	8.05065700000000	0.44143900000000	0.00000000000000	-0.10963200000000	0.00000000000000	23.37359900000000	0.00000000000000	0.00000000000000	7.44906900000000	0.00000000000000	
12.68661800000000	-54.84652000000000	716.42920900000001	43.70813900000000	0.17519300000000	0.00000000000000	0.07287800000000	0.18109200000000	149.17278500000000	7.84064400000000	0.44322300000000	0.00000000000000	-0.10988100000000	0.00000000000000	23.13207300000000	0.00000000000000	0.00000000000000	7.46073600000000	0.00000000000000	
12.68828400000000	-55.29387300000000	712.25052900000003	43.07971100000000	0.17468900000000	0.00000000000000	0.07266400000000	0.94950400000000	155.60061999999999	7.60657700000000	0.44488400000000	0.00000000000000	-0.11012900000000	0.00000000000000	22.88748100000000	0.00000000000000	0.00000000000000	7.45937500000000	0.00000000000000	
12.68994800000000	-55.74175700000000	707.93664300000000	42.43388500000000	0.17419400000000	0.00000000000000	0.07244600000000	1.75956700000000	162.17360900000000	7.34590700000000	0.44643100000000	0.00000000000000	-0.11037500000000	0.00000000000000	22.63992300000000	0.00000000000000	0.00000000000000	7.44316800000000	0.00000000000000	
